<svg viewBox="0 0 52 62" width="52" height="62" xmlns="http://www.w3.org/2000/svg">
  <mask id="k1">
    <path d="M26 1C39.3 1 50 11.4 50 24.3 50 34.3 43.3 43.3 26 61 8.7 43.3 2 34.3 2 24.3 2 11.4 12.7 1 26 1Z" fill="#fff"></path>
    <g stroke="#000" stroke-width="2.8" stroke-linecap="round">
      <line x1="26" y1="23" x2="13.5" y2="14.5"></line>
      <line x1="26" y1="23" x2="38.5" y2="13.5"></line>
      <line x1="26" y1="23" x2="28" y2="40"></line>
    </g>
    <circle cx="26" cy="23" r="9.6" fill="#000"></circle>
    <circle cx="13.5" cy="14.5" r="3.6" fill="#000"></circle>
    <circle cx="38.5" cy="13.5" r="3" fill="#000"></circle>
    <circle cx="28" cy="40" r="3.3" fill="#000"></circle>
  </mask>
  <path d="M26 1C39.3 1 50 11.4 50 24.3 50 34.3 43.3 43.3 26 61 8.7 43.3 2 34.3 2 24.3 2 11.4 12.7 1 26 1Z" fill="#0a2540" mask="url(#k1)"></path>
  <circle cx="26" cy="23" r="5.6" fill="#f76b1c"></circle>
</svg>